<mxfile host="Electron" modified="2023-11-23T08:24:22.654Z" agent="Mozilla/5.0 (Windows NT 10.0; Win64; x64) AppleWebKit/537.36 (KHTML, like Gecko) draw.io/22.1.2 Chrome/114.0.5735.289 Electron/25.9.4 Safari/537.36" etag="3wuzlVbq6td1CTD81HoD" version="22.1.2" type="device">
  <diagram name="Страница — 1" id="TWy4UYaT7lhCc4IGFQ1o">
    <mxGraphModel dx="1036" dy="702" grid="1" gridSize="10" guides="1" tooltips="1" connect="1" arrows="1" fold="1" page="1" pageScale="1" pageWidth="827" pageHeight="1169" math="0" shadow="0">
      <root>
        <mxCell id="0" />
        <mxCell id="1" parent="0" />
        <mxCell id="f2MMuW7yAnDLfrSJl3VY-1" value="Запись на тренировку" style="swimlane;whiteSpace=wrap;html=1;" parent="1" vertex="1">
          <mxGeometry x="314" y="70" width="200" height="60" as="geometry" />
        </mxCell>
        <mxCell id="f2MMuW7yAnDLfrSJl3VY-2" value="Администратор" style="rounded=0;whiteSpace=wrap;html=1;" parent="f2MMuW7yAnDLfrSJl3VY-1" vertex="1">
          <mxGeometry y="40" width="130" height="20" as="geometry" />
        </mxCell>
        <mxCell id="f2MMuW7yAnDLfrSJl3VY-5" value="База данных" style="swimlane;whiteSpace=wrap;html=1;startSize=23;" parent="1" vertex="1">
          <mxGeometry x="90" y="160" width="210" height="140" as="geometry" />
        </mxCell>
        <mxCell id="f2MMuW7yAnDLfrSJl3VY-6" value="процесс взаимодействия Администратора и Клиента" style="rounded=0;whiteSpace=wrap;html=1;" parent="f2MMuW7yAnDLfrSJl3VY-5" vertex="1">
          <mxGeometry y="110" width="170" height="30" as="geometry" />
        </mxCell>
        <mxCell id="f2MMuW7yAnDLfrSJl3VY-11" value="&lt;b&gt;название:&lt;/b&gt; Запись клиента&amp;nbsp;&amp;nbsp;" style="text;strokeColor=none;fillColor=none;align=left;verticalAlign=middle;spacingLeft=4;spacingRight=4;overflow=hidden;points=[[0,0.5],[1,0.5]];portConstraint=eastwest;rotatable=0;whiteSpace=wrap;html=1;" parent="f2MMuW7yAnDLfrSJl3VY-5" vertex="1">
          <mxGeometry x="5" y="30" width="190" height="30" as="geometry" />
        </mxCell>
        <mxCell id="f2MMuW7yAnDLfrSJl3VY-13" value="Проверка наличия в базе данных и взаимодействие с ней" style="text;strokeColor=none;fillColor=none;align=left;verticalAlign=middle;spacingLeft=4;spacingRight=4;overflow=hidden;points=[[0,0.5],[1,0.5]];portConstraint=eastwest;rotatable=0;whiteSpace=wrap;html=1;" parent="f2MMuW7yAnDLfrSJl3VY-5" vertex="1">
          <mxGeometry x="5" y="60" width="201" height="30" as="geometry" />
        </mxCell>
        <mxCell id="f2MMuW7yAnDLfrSJl3VY-7" value="Выбор тренировки" style="swimlane;whiteSpace=wrap;html=1;" parent="1" vertex="1">
          <mxGeometry x="520" y="160" width="200" height="150" as="geometry" />
        </mxCell>
        <mxCell id="f2MMuW7yAnDLfrSJl3VY-8" value="процесс взаимодействия Тренера и Клиента" style="rounded=0;whiteSpace=wrap;html=1;" parent="f2MMuW7yAnDLfrSJl3VY-7" vertex="1">
          <mxGeometry y="120" width="170" height="30" as="geometry" />
        </mxCell>
        <mxCell id="f2MMuW7yAnDLfrSJl3VY-10" value="&lt;b&gt;название:&lt;/b&gt; Тренер подбирает тренировку для Клиента&lt;br&gt;" style="text;strokeColor=none;fillColor=none;align=left;verticalAlign=middle;spacingLeft=4;spacingRight=4;overflow=hidden;points=[[0,0.5],[1,0.5]];portConstraint=eastwest;rotatable=0;whiteSpace=wrap;html=1;" parent="f2MMuW7yAnDLfrSJl3VY-7" vertex="1">
          <mxGeometry y="30" width="190" height="40" as="geometry" />
        </mxCell>
        <mxCell id="f2MMuW7yAnDLfrSJl3VY-14" value="&lt;br&gt;Тренер учитывает требования Клиента" style="text;strokeColor=none;fillColor=none;align=left;verticalAlign=middle;spacingLeft=4;spacingRight=4;overflow=hidden;points=[[0,0.5],[1,0.5]];portConstraint=eastwest;rotatable=0;whiteSpace=wrap;html=1;" parent="f2MMuW7yAnDLfrSJl3VY-7" vertex="1">
          <mxGeometry y="60" width="190" height="50" as="geometry" />
        </mxCell>
        <mxCell id="JD4TXFO3JGopFOhhDsb4-1" value="" style="html=1;verticalAlign=bottom;startArrow=circle;startFill=1;endArrow=none;startSize=6;endSize=8;curved=0;rounded=0;exitX=0.5;exitY=0;exitDx=0;exitDy=0;entryX=0;entryY=0.5;entryDx=0;entryDy=0;endFill=0;" edge="1" parent="1" source="f2MMuW7yAnDLfrSJl3VY-5" target="f2MMuW7yAnDLfrSJl3VY-1">
          <mxGeometry width="80" relative="1" as="geometry">
            <mxPoint x="370" y="190" as="sourcePoint" />
            <mxPoint x="450" y="190" as="targetPoint" />
          </mxGeometry>
        </mxCell>
        <mxCell id="JD4TXFO3JGopFOhhDsb4-6" value="" style="html=1;verticalAlign=bottom;startArrow=circle;startFill=1;endArrow=none;startSize=6;endSize=8;curved=0;rounded=0;exitX=0.5;exitY=0;exitDx=0;exitDy=0;entryX=1;entryY=0.5;entryDx=0;entryDy=0;endFill=0;" edge="1" parent="1" source="f2MMuW7yAnDLfrSJl3VY-7" target="f2MMuW7yAnDLfrSJl3VY-1">
          <mxGeometry width="80" relative="1" as="geometry">
            <mxPoint x="660" y="120" as="sourcePoint" />
            <mxPoint x="779" y="60" as="targetPoint" />
          </mxGeometry>
        </mxCell>
      </root>
    </mxGraphModel>
  </diagram>
</mxfile>
